<svg width="24" height="25" viewBox="0 0 24 25" fill="none" xmlns="http://www.w3.org/2000/svg">
<path d="M7.77201 3.03402L8.84901 2.69002C9.85701 2.36802 10.935 2.88902 11.367 3.90702L12.227 5.93502C12.602 6.81802 12.394 7.85702 11.713 8.50302L9.82001 10.301C9.93668 11.377 10.298 12.436 10.904 13.478C11.4803 14.4859 12.2524 15.3682 13.175 16.073L15.451 15.313C16.313 15.026 17.252 15.357 17.781 16.134L19.013 17.944C19.629 18.848 19.518 20.094 18.755 20.86L17.937 21.681C17.123 22.498 15.961 22.795 14.885 22.459C12.3463 21.667 10.012 19.316 7.88201 15.406C5.74934 11.4894 4.99668 8.16669 5.62401 5.43802C5.88801 4.29002 6.70601 3.37502 7.77401 3.03402" fill="#1A1A1A"/>
</svg>
