<svg width="158" height="39" viewBox="0 0 158 39" fill="none" xmlns="http://www.w3.org/2000/svg">
<rect y="0.785645" width="158" height="38" rx="19" fill="white"/>
<path d="M36.3825 11.3536C36.8585 12.6136 37.0825 13.9296 36.9985 15.2736C36.9145 16.8696 36.9705 18.4656 36.9985 20.0616C37.0265 21.2936 36.8585 22.4976 36.6345 23.7296C36.5505 24.1776 36.4945 24.6536 36.3825 25.1016C36.1025 26.0816 35.7665 27.0616 35.4585 28.0416C35.4305 28.1256 35.3745 28.2376 35.3465 28.3216C34.6745 29.3296 33.9185 30.2256 32.7425 30.7016C32.3225 30.8976 31.9305 31.0656 31.5105 31.2896C30.9225 31.5696 30.2785 31.6816 29.6345 31.7376C28.7665 31.7936 27.8705 31.8216 27.0025 31.8776C26.8065 31.8776 26.5825 31.8216 26.3865 31.7936C25.8265 31.6536 25.4905 31.2336 25.4625 30.6736C25.4345 30.5616 25.4345 30.4496 25.4625 30.3376C25.5465 29.6376 25.4625 28.9376 25.4345 28.2376C25.4065 27.2576 25.4345 26.2776 25.4345 25.2976C25.4345 24.5976 25.4625 23.8976 25.4625 23.1976C25.4625 22.8056 25.4065 22.3856 25.4625 22.0216C25.5185 21.6576 25.6025 21.3496 25.6025 20.9856C25.6865 18.8296 25.7145 16.7016 25.7425 14.5456C25.7425 14.5176 25.7425 14.4616 25.7145 14.4336C25.6865 14.4056 25.6305 14.4056 25.6025 14.3776C25.1265 14.3216 24.6505 14.4056 24.3985 13.9296C24.2585 13.6496 24.2305 13.3136 24.2305 13.0056C24.2025 12.2216 24.1745 11.4376 24.1465 10.6536C24.1465 10.4296 24.1465 10.1776 24.1745 9.95364C24.2585 9.58964 24.4825 9.25364 24.8465 9.11364C24.9865 9.05764 25.1545 9.05764 25.3225 9.02964C25.7985 9.00164 30.6145 8.80564 30.6145 8.88964C30.6145 8.88964 30.6145 8.88964 30.6145 8.86164C31.4265 8.86164 32.2665 8.83364 33.0505 8.86164C34.2545 8.91764 35.1785 9.50564 35.9345 10.4016C36.1585 10.6536 36.2705 11.0176 36.3825 11.3536ZM32.3505 23.8416C32.6305 21.1256 32.9385 18.3256 32.6865 15.5816C32.6305 15.1896 32.5465 14.7416 32.2105 14.5736C32.0425 14.4616 31.8185 14.4616 31.6225 14.4616C31.3425 14.4616 31.0905 14.4616 30.8105 14.4336C30.7545 14.4336 30.6985 14.4336 30.6705 14.4896C30.6145 14.5176 30.6145 14.5736 30.6145 14.6296C30.5305 15.2176 30.5865 15.8056 30.5585 16.3936C30.5305 17.4016 30.4745 18.4096 30.4185 19.3896C30.3065 21.5176 30.1665 23.5896 30.0545 25.7176C30.0545 25.7456 30.0545 25.8016 30.0825 25.8296C30.1385 25.8856 30.1945 25.8856 30.2225 25.8856C30.8945 25.8576 31.5945 25.6616 31.9585 25.1296C32.2385 24.7656 32.2945 24.2896 32.3505 23.8416ZM49.5676 17.2616C49.3436 17.5416 49.0916 17.7376 48.7276 17.7936C48.5036 17.8216 48.3076 17.9336 48.1116 17.9616C47.5796 17.9896 47.0476 17.9896 46.4876 18.0176C46.0956 17.8216 45.8996 17.5136 45.8716 17.0656C45.8156 16.6736 45.7596 16.3096 45.6756 15.8896C45.0596 15.8336 44.4716 15.8336 43.8556 16.1136C43.7996 16.3096 43.7156 16.4776 43.6876 16.6736C43.6876 17.3176 43.6876 17.9616 43.6876 18.6336C43.8276 18.6336 43.9396 18.6336 44.0796 18.6336C44.5836 18.6056 45.0876 18.6056 45.5916 18.5776C46.3756 18.5216 46.8796 19.1096 46.8796 19.7256C46.9076 20.2576 46.9916 20.7896 47.0196 21.3216C47.0196 21.6296 46.9916 21.9376 46.9636 22.2456C46.9076 22.6096 46.6836 22.8616 46.3476 22.9456C46.0956 23.0296 45.8436 23.0576 45.6196 23.0856C45.2556 23.1136 44.9196 23.1136 44.5836 23.1136C44.3596 23.1416 44.1356 23.1696 43.9116 23.2256C43.8836 23.2816 43.8556 23.3376 43.8556 23.3936C43.8556 24.1496 43.8556 24.9056 43.8556 25.6616C43.8836 26.1656 44.1636 26.4736 44.6956 26.5296C44.7236 26.5296 44.7796 26.5296 44.8076 26.5296C45.0876 26.5296 45.3676 26.5296 45.6756 26.5576C45.9836 26.1376 45.8156 25.6336 45.9836 25.0736C46.0396 24.9616 46.2076 24.8776 46.4596 24.8216C47.2156 24.6256 47.9996 24.6256 48.7836 24.6256C49.1196 24.5976 49.3436 24.8496 49.5116 25.1016C49.6236 25.2696 49.6796 25.4656 49.6796 25.6336C49.7356 26.1376 49.7916 26.6416 49.7916 27.1736C49.7916 27.7336 49.7916 28.2936 49.7356 28.8536C49.6796 29.3016 49.4836 29.6656 49.1196 29.9456C48.2796 30.5896 46.9636 30.6176 45.9556 30.7016C44.7796 30.8136 43.6316 30.7856 42.4836 30.6176C41.8396 30.5336 41.1956 30.3936 40.7196 29.9736C40.1596 29.4696 39.9636 28.7136 39.8236 27.9856C39.5436 26.7816 39.6556 25.5216 39.6276 24.2896C39.5996 23.0296 39.5996 21.7696 39.6276 20.4816C39.6556 19.5296 39.7396 18.5776 39.7956 17.6256C39.8796 15.8336 39.5716 13.7616 40.9716 12.3336C41.5036 11.7736 42.2316 11.4656 42.9596 11.2976C44.3316 10.9896 45.8156 11.1016 47.2156 11.1016C47.6076 11.1016 47.9996 11.1576 48.3636 11.2136C48.8116 11.2696 49.1476 11.4936 49.3156 11.9136C49.4276 12.1656 49.5396 12.4456 49.6516 12.6976C49.7636 13.0056 49.7076 13.3416 49.6516 13.6496C49.6236 13.8456 49.6236 14.0136 49.6236 14.2096C49.5956 15.1336 49.5956 16.0856 49.5956 17.0096C49.5956 17.0936 49.5676 17.1776 49.5676 17.2616ZM58.7577 18.1576C58.4217 17.3736 58.5337 16.6176 58.4497 15.8616C57.8337 15.8056 57.2457 15.7496 56.6577 16.0016C56.4057 16.3656 56.4057 16.7576 56.3777 17.1776C56.7697 17.5976 57.1617 18.0176 57.6097 18.4096C58.4777 19.1656 59.3737 19.8936 60.3537 20.5376C60.9417 20.9016 61.3337 21.4616 61.7817 21.9936C61.8377 22.1056 61.8937 22.2176 61.9217 22.3296C62.1457 23.2536 62.2297 24.1776 62.2297 25.1016C62.2577 26.1936 62.2297 27.2576 62.2017 28.3216C62.1737 28.7976 62.0897 29.2736 62.0337 29.7496C62.0057 29.9736 61.8657 30.1416 61.6977 30.3096C61.2777 30.6176 60.7737 30.7576 60.2697 30.7856C59.5977 30.8136 58.9257 30.8136 58.2537 30.8416C57.8057 30.8696 57.3577 30.9256 56.9377 30.8976C56.3777 30.8976 55.8177 30.8136 55.2857 30.7856C54.9777 30.7576 54.6697 30.7296 54.3897 30.7016C54.0257 30.6456 53.6337 30.6176 53.2697 30.5336C53.1577 30.5056 53.0457 30.4496 52.9617 30.3656C52.7097 30.0856 52.4857 29.7776 52.4577 29.3576C52.3457 28.1816 52.3737 27.0336 52.3737 25.8576C52.3737 25.5776 52.4017 25.2696 52.4297 24.9896C52.5417 24.1776 53.2417 23.5896 54.0817 23.5336C54.5857 23.5056 55.0617 23.5616 55.5097 23.7576C55.9297 23.8976 56.0977 24.1216 56.0977 24.5696C56.1257 25.0456 56.1537 25.5496 56.2097 26.0256C56.2097 26.1936 56.2937 26.3336 56.3777 26.5016C56.7417 26.4736 57.1057 26.4736 57.4417 26.4456C57.8897 26.3616 58.1697 26.0816 58.1977 25.6056C58.1977 25.2976 58.1977 24.9896 58.1977 24.6816C58.1977 24.5976 58.1697 24.4856 58.1697 24.3456C57.8617 24.0656 57.5537 23.7576 57.2177 23.4216C56.9937 23.1976 56.7697 22.9456 56.5457 22.7216C56.2937 22.4696 56.0417 22.2456 55.7617 22.0216C55.2297 21.6296 54.6697 21.2656 54.1377 20.8456C53.8017 20.5936 53.4937 20.2856 53.1857 20.0056C52.9337 19.7536 52.7657 19.4456 52.8217 19.0816C52.8217 18.9136 52.7937 18.7736 52.7657 18.6056C52.5697 17.5976 52.5697 16.5896 52.6817 15.5816C52.6817 15.4976 52.6817 15.3856 52.6817 15.3016C52.5697 14.3776 52.7377 13.4536 52.9057 12.5576C52.9337 12.3056 53.0457 12.1096 53.1577 11.8856C53.2417 11.6616 53.4377 11.5496 53.6337 11.4376C54.1377 11.2136 54.6417 11.1296 55.1737 11.1016C56.8257 10.9896 58.4497 11.1296 60.0737 11.1016C60.4937 11.1016 60.8857 11.1856 61.2777 11.2696C61.6977 11.3256 62.0057 11.5776 62.2017 11.9976C62.3977 12.3896 62.4257 12.8096 62.3977 13.2296C62.3977 13.9016 62.3977 14.5736 62.3977 15.2456C62.3977 15.3296 62.3977 15.3856 62.3977 15.4696C62.3697 15.9176 62.3417 16.3936 62.3137 16.8416C62.3137 17.2056 62.2857 17.5416 62.1457 17.9056C61.9217 18.0176 61.6697 18.1016 61.4177 18.1296C60.7457 18.1856 60.1017 18.2976 59.4297 18.2416C59.2057 18.2416 58.9817 18.1856 58.7577 18.1576ZM64.9824 22.9736C65.0384 21.9936 65.0944 20.4256 65.2064 18.8856C65.2624 18.1296 65.3744 17.4016 65.4304 16.6456C65.4864 15.7776 65.4864 14.9096 65.5704 14.0416C65.6264 13.3416 65.6824 12.6416 65.9624 11.9696C66.1304 11.5496 66.4104 11.3536 66.8584 11.3256C67.3064 11.3256 67.7544 11.2416 68.2024 11.2136C68.5944 11.1856 68.9584 11.1856 69.3504 11.1856C69.7424 11.2136 69.9944 11.4936 70.0224 11.8856C70.0504 12.3336 70.0504 12.8096 70.0504 13.2856C70.0504 14.3216 70.0224 15.3576 70.0224 16.3936C69.9944 17.6816 69.9944 18.9696 69.9664 20.2856C69.9384 21.1256 69.9384 21.9656 69.9104 22.8056C69.9104 22.9456 69.9104 23.0856 69.8544 23.2256C69.7144 23.7296 69.7704 24.2616 69.7424 24.7936C69.7424 25.3536 69.7424 25.9416 69.6304 26.5296C69.5744 26.9496 69.6024 27.3976 69.5744 27.8456C69.5744 28.2656 69.5744 28.7136 69.5744 29.1616C69.5744 29.6656 69.3504 30.0576 68.9584 30.3656C68.8744 30.4216 68.8184 30.4776 68.7344 30.5056C68.1184 30.6736 67.4744 30.8976 66.8024 30.6736C66.6064 30.5896 66.3544 30.5896 66.1584 30.5056C65.4864 30.2256 65.1504 29.7496 65.0944 28.9936C64.9544 27.2016 65.0384 25.3816 64.9824 22.9736ZM92.0094 23.2256C91.9534 24.9336 92.1494 26.6976 91.7014 28.3776C91.4214 29.4976 90.7774 30.6456 89.6574 30.9536C89.3494 31.0656 89.0414 31.0656 88.7334 31.0936C87.7254 31.1496 86.6894 31.1776 85.6814 31.2336C84.6454 31.2896 83.6374 31.3456 82.6014 31.2056C82.1254 31.1496 81.6494 31.0096 81.2574 30.7296C80.6694 30.3096 80.4174 29.5536 80.3054 28.8256C80.2214 28.2376 80.2214 27.6216 80.2214 27.0056C80.2214 25.6616 80.1934 24.3176 80.1934 22.9736C80.1934 21.2376 80.2494 19.4736 80.4174 17.7376C80.5854 15.8896 80.6414 14.0136 80.7254 12.1656C80.7534 11.8856 80.7814 11.6056 80.8934 11.3536C81.2014 10.5696 81.3974 9.75764 82.1534 9.30964C82.8534 8.91764 83.7214 8.80564 84.5334 8.74964C85.5694 8.66564 86.5774 8.66564 87.5854 8.66564C88.4534 8.66564 89.3494 8.69364 90.0774 9.11364C90.8614 9.53364 91.3654 10.3176 91.6174 11.1576C91.8694 11.9976 91.8974 12.8936 91.9254 13.7616C91.9814 15.1336 92.0094 16.5056 91.9814 17.8776C91.9534 18.7176 91.8974 19.5576 91.8694 20.4256C91.8414 21.2096 91.7574 22.0216 91.9534 22.8336C92.0094 22.9736 92.0094 23.1136 92.0094 23.2256ZM87.5014 24.4576C87.5294 23.5896 87.5294 22.7216 87.5294 21.8816C87.5294 21.0976 87.4734 20.3136 87.4454 19.5296C87.3894 18.4096 87.3334 17.2616 87.2494 16.1416C87.2214 15.6656 87.0814 15.2176 87.0254 14.8536C86.7174 14.4896 86.4094 14.4616 86.1014 14.4896C85.5694 14.5176 85.0934 14.9376 85.0934 15.3856C85.0654 16.2536 85.0374 17.1216 85.0654 17.9616C85.0654 18.6616 85.2054 19.3616 85.2054 20.0616C85.2054 21.2096 85.1494 22.3856 85.1214 23.5336C85.1214 24.1216 85.1214 24.7096 85.1214 25.3256C85.0934 25.7176 85.3174 25.9416 85.6534 26.1096C85.7654 26.1656 85.8774 26.1936 85.9894 26.2216C86.2694 26.1376 86.5494 26.0816 86.8014 25.9976C87.1934 25.8576 87.4734 25.6056 87.4454 25.1576C87.4454 24.9336 87.5014 24.6816 87.5014 24.4576ZM100.936 19.6696C101.076 19.0536 101.216 18.4376 101.356 17.8216C101.524 16.9536 101.664 16.0576 101.832 15.1896C101.86 14.9656 101.916 14.7136 101.972 14.4896C102.084 14.0136 102.196 13.5656 102.336 13.0896C102.448 12.6696 102.56 12.2216 102.672 11.7736C102.728 11.5216 102.812 11.3256 103.092 11.1856C104.072 11.2136 105.136 11.0736 106.144 11.3536C106.34 11.4096 106.508 11.4936 106.676 11.5776C106.676 11.7736 106.676 11.9136 106.676 12.0536C106.676 12.1376 106.648 12.1936 106.648 12.2496C106.424 13.0336 106.34 13.8456 106.2 14.6296C106.032 15.8336 105.836 17.0096 105.64 18.2136C105.444 19.1936 105.248 20.1736 105.052 21.1536C104.772 22.3856 104.492 23.6456 104.268 24.9056C104.1 25.8016 103.876 26.6696 103.624 27.5096C103.596 27.5656 103.596 27.6496 103.568 27.7056C103.148 28.4056 102.924 29.2456 102.616 30.0296C102.42 30.5056 102.084 30.6736 101.608 30.6456C101.272 30.6176 100.936 30.6456 100.6 30.6736C100.236 30.7016 99.9561 30.5896 99.7321 30.3376C99.7041 30.3376 99.7041 30.3376 99.7041 30.3096C99.0601 29.8336 98.6961 29.1616 98.5001 28.3496C98.3881 27.8176 98.1641 27.3416 97.9961 26.8096C97.6881 25.8576 97.4081 24.8776 97.1281 23.9256C96.8761 23.0016 96.6801 22.0776 96.4001 21.1816C96.1481 20.3696 95.9521 19.5296 95.8121 18.7176C95.7001 18.1016 95.5601 17.4856 95.3641 16.8976C95.2241 16.3376 95.1401 15.7496 95.0561 15.1896C94.9161 14.3776 94.7761 13.5656 94.6361 12.7536C94.4681 11.6896 95.0561 10.9056 96.0361 10.8776C96.5401 10.8776 97.0441 10.8496 97.5761 10.8496C98.1081 10.8496 98.4721 11.1576 98.5841 11.7176C98.6961 12.3896 98.9481 13.0056 99.1441 13.6776C99.3401 14.2096 99.4521 14.7696 99.5921 15.3016C99.6481 15.4696 99.6761 15.6656 99.7321 15.8056C100.096 16.7576 100.376 17.7656 100.6 18.7456C100.656 19.0816 100.768 19.3896 100.852 19.6976C100.88 19.6976 100.908 19.6976 100.936 19.6696ZM118.552 17.2616C118.328 17.5416 118.076 17.7376 117.712 17.7936C117.488 17.8216 117.292 17.9336 117.096 17.9616C116.564 17.9896 116.032 17.9896 115.472 18.0176C115.08 17.8216 114.884 17.5136 114.856 17.0656C114.8 16.6736 114.744 16.3096 114.66 15.8896C114.044 15.8336 113.456 15.8336 112.84 16.1136C112.784 16.3096 112.7 16.4776 112.672 16.6736C112.672 17.3176 112.672 17.9616 112.672 18.6336C112.812 18.6336 112.924 18.6336 113.064 18.6336C113.568 18.6056 114.072 18.6056 114.576 18.5776C115.36 18.5216 115.864 19.1096 115.864 19.7256C115.892 20.2576 115.976 20.7896 116.004 21.3216C116.004 21.6296 115.976 21.9376 115.948 22.2456C115.892 22.6096 115.668 22.8616 115.332 22.9456C115.08 23.0296 114.828 23.0576 114.604 23.0856C114.24 23.1136 113.904 23.1136 113.568 23.1136C113.344 23.1416 113.12 23.1696 112.896 23.2256C112.868 23.2816 112.84 23.3376 112.84 23.3936C112.84 24.1496 112.84 24.9056 112.84 25.6616C112.868 26.1656 113.148 26.4736 113.68 26.5296C113.708 26.5296 113.764 26.5296 113.792 26.5296C114.072 26.5296 114.352 26.5296 114.66 26.5576C114.968 26.1376 114.8 25.6336 114.968 25.0736C115.024 24.9616 115.192 24.8776 115.444 24.8216C116.2 24.6256 116.984 24.6256 117.768 24.6256C118.104 24.5976 118.328 24.8496 118.496 25.1016C118.608 25.2696 118.664 25.4656 118.664 25.6336C118.72 26.1376 118.776 26.6416 118.776 27.1736C118.776 27.7336 118.776 28.2936 118.72 28.8536C118.664 29.3016 118.468 29.6656 118.104 29.9456C117.264 30.5896 115.948 30.6176 114.94 30.7016C113.764 30.8136 112.616 30.7856 111.468 30.6176C110.824 30.5336 110.18 30.3936 109.704 29.9736C109.144 29.4696 108.948 28.7136 108.808 27.9856C108.528 26.7816 108.64 25.5216 108.612 24.2896C108.584 23.0296 108.584 21.7696 108.612 20.4816C108.64 19.5296 108.724 18.5776 108.78 17.6256C108.864 15.8336 108.556 13.7616 109.956 12.3336C110.488 11.7736 111.216 11.4656 111.944 11.2976C113.316 10.9896 114.8 11.1016 116.2 11.1016C116.592 11.1016 116.984 11.1576 117.348 11.2136C117.796 11.2696 118.132 11.4936 118.3 11.9136C118.412 12.1656 118.524 12.4456 118.636 12.6976C118.748 13.0056 118.692 13.3416 118.636 13.6496C118.608 13.8456 118.608 14.0136 118.608 14.2096C118.58 15.1336 118.58 16.0856 118.58 17.0096C118.58 17.0936 118.552 17.1776 118.552 17.2616ZM125.95 17.8216C125.95 18.0736 125.95 18.3256 125.95 18.5496C125.95 20.1176 125.978 21.6576 125.922 23.1976C125.922 24.1216 125.838 25.0456 125.782 25.9696C125.726 27.1736 125.642 28.3776 125.586 29.5816C125.586 29.6656 125.558 29.7216 125.558 29.8056C125.53 30.2816 125.306 30.5616 124.83 30.6736C124.438 30.7576 124.018 30.9536 123.626 30.8696C123.178 30.7856 122.758 30.7016 122.366 30.5056C121.806 30.2816 121.498 29.8056 121.442 29.1896C121.302 26.6136 121.358 24.0656 121.386 21.5176C121.414 20.2016 121.554 18.9136 121.666 17.5976C121.778 16.5336 121.806 15.4416 121.89 14.3496C121.946 13.6776 122.03 12.9776 122.114 12.3056C122.17 12.0536 122.282 11.8016 122.366 11.5776C122.506 11.2696 122.73 11.1016 123.066 11.0736C123.794 11.0176 124.522 11.0176 125.25 11.1856C125.39 11.2136 125.502 11.2696 125.614 11.2976C126.146 12.1936 126.594 13.0896 127.154 13.9296C127.714 14.7696 128.358 15.5256 129.03 16.3656C129.03 16.1976 129.058 16.0856 129.058 15.9736C129.114 15.1056 129.142 14.2096 129.198 13.3416C129.254 12.7816 129.31 12.2216 129.562 11.6896C129.73 11.2976 130.01 11.0736 130.458 11.0456C131.13 11.0176 131.802 11.0456 132.474 11.1856C132.614 11.2136 132.754 11.2696 132.838 11.2976C133.426 11.9136 133.258 12.6136 133.23 13.3136C133.202 13.4816 133.174 13.6776 133.174 13.8736C133.174 15.2736 133.202 16.6736 133.202 18.1016C133.202 19.6696 133.23 21.2656 133.202 22.8616C133.146 24.1776 133.062 25.4936 132.922 26.7816C132.838 27.6216 132.922 28.4336 132.838 29.2736C132.81 29.5256 132.782 29.8056 132.754 30.0856C132.726 30.3096 132.586 30.4776 132.39 30.5616C131.914 30.7296 131.41 30.9256 130.906 30.8696C130.458 30.7856 130.01 30.7016 129.618 30.5056C129.03 30.2536 128.722 29.7776 128.694 29.1056C128.554 26.8096 128.638 24.4856 128.61 22.1616C128.61 22.0496 128.582 21.9096 128.526 21.8256C128.078 21.0976 127.686 20.3136 127.154 19.6416C126.762 19.1376 126.482 18.5496 126.146 17.9896C126.118 17.9336 126.062 17.8776 126.006 17.8216C126.006 17.8216 125.978 17.8216 125.95 17.8216Z" fill="#9A2132"/>
</svg>
