<svg width="105" height="111" viewBox="0 0 105 111" fill="none" xmlns="http://www.w3.org/2000/svg">
<path d="M17.1309 0.0362138C16.5986 -0.111067 16.0477 0.201039 15.9004 0.733324C15.7532 1.26561 16.0653 1.8165 16.5976 1.96379L17.1309 0.0362138ZM7.73325 109.839C8.17644 110.169 8.80286 110.076 9.13241 109.633L14.5027 102.411C14.8323 101.968 14.7402 101.341 14.297 101.012C13.8538 100.682 13.2274 100.775 12.8978 101.218L8.12419 107.637L1.70449 102.864C1.2613 102.534 0.634873 102.626 0.305324 103.07C-0.0242257 103.513 0.0678964 104.139 0.511084 104.469L7.73325 109.839ZM16.5976 1.96379C42.4849 9.12672 61.5064 14.4989 75.0126 18.6282C88.5598 22.7701 96.4522 25.6319 100.171 27.7613C101.093 28.2897 101.7 28.7411 102.065 29.1158C102.437 29.4981 102.457 29.6949 102.456 29.7307C102.456 29.7435 102.459 29.8753 102.16 30.1356C101.858 30.3994 101.352 30.697 100.599 31.0172C99.0987 31.655 96.8778 32.2756 94.0442 32.9422C91.2225 33.606 87.8626 34.3001 84.1029 35.0984C69.1205 38.2794 47.9619 43.0716 31.5463 53.8956C23.3215 59.3188 16.2484 66.2799 11.743 75.3456C7.23353 84.4197 5.33288 95.5297 7.34059 109.182L9.31931 108.891C7.36331 95.5903 9.22816 84.9 13.5341 76.2357C17.8441 67.563 24.6363 60.8475 32.6473 55.5653C48.7034 44.9783 69.4988 40.2437 84.5182 37.0548C88.2589 36.2606 91.6525 35.5595 94.5022 34.8891C97.3402 34.2214 99.7089 33.5688 101.381 32.8579C102.214 32.5038 102.941 32.1082 103.475 31.6429C104.012 31.174 104.454 30.5408 104.456 29.7357C104.458 28.9536 104.042 28.2795 103.498 27.7209C102.947 27.1548 102.159 26.5954 101.165 26.0258C97.2143 23.7636 89.0914 20.8413 75.5973 16.7156C62.0621 12.5774 43.0163 7.1986 17.1309 0.0362138L16.5976 1.96379Z" fill="black"/>
</svg>
