<svg width="161" height="161" viewBox="0 0 161 161" fill="none" xmlns="http://www.w3.org/2000/svg">
<path d="M57.4377 42.0774C55.4377 42.0774 53.4377 42.0774 51.3714 42.1449C49.3039 42.2111 47.3702 42.2111 45.5702 42.2786C43.7702 42.3449 42.1039 42.3449 40.5039 42.4111C38.9702 42.4774 37.9039 42.4774 36.7702 42.4774C36.3039 42.4774 36.1039 42.7436 36.1039 43.2111V111.811C36.1039 112.411 36.3702 112.679 36.9039 112.679H49.8377C50.3039 112.611 50.6377 112.211 50.5702 111.745V90.3449C51.8364 90.3449 52.7702 90.3449 53.4377 90.4111C54.1039 90.4774 55.1702 90.4774 56.7702 90.4774C62.2377 90.4774 67.2377 89.8774 71.7702 88.2111C76.1039 86.6111 79.8377 83.8111 82.5039 80.0774C85.1706 76.3441 86.5039 71.6107 86.5039 65.8774C86.5039 62.8774 85.9714 60.0111 84.9714 57.2111C83.9118 54.3585 82.2519 51.7667 80.1039 49.6111C77.5687 47.1482 74.517 45.2805 71.1702 44.1436C67.4364 42.7436 62.9039 42.0774 57.4377 42.0774ZM58.9252 55.2086C61.3002 55.2536 63.6127 55.6686 65.7702 56.5436C67.7039 57.2774 69.3039 58.6111 70.4377 60.3436C71.501 62.1367 72.0329 64.1949 71.9714 66.2786C71.9714 69.2111 71.3039 71.4786 69.9039 73.1449C68.4364 74.8111 66.5702 76.0786 64.4377 76.6786C61.9702 77.4786 59.3702 77.8774 56.7702 77.8774H53.2364C52.4364 77.8774 51.5714 77.8111 50.6377 77.7449V55.3449C51.1039 55.2774 52.0377 55.2111 53.3714 55.2786C54.6377 55.2111 56.1702 55.2111 57.9039 55.2111C58.2456 55.2028 58.586 55.202 58.9252 55.2086ZM114.838 58.6124C110.104 58.6124 106.17 59.3449 103.038 60.9449C100.171 62.2786 97.7039 64.4111 96.0377 67.0774C94.5714 69.5449 93.7702 72.2774 93.7702 75.1449C93.7132 77.5033 94.2401 79.8393 95.3039 81.9449C96.5508 84.187 98.2819 86.1227 100.371 87.6111C103.304 89.617 106.487 91.2307 109.838 92.4111C113.104 93.6774 115.304 94.6774 116.371 95.5436C117.438 96.4111 117.971 97.2774 117.971 98.2111C117.971 99.4111 117.238 100.545 116.171 101.011C114.971 101.611 113.171 101.945 110.638 101.945C107.971 101.945 105.304 101.611 102.77 100.945C99.8609 100.295 97.0716 99.193 94.5039 97.6786C94.3039 97.5449 94.1039 97.4786 93.9039 97.6124C93.7039 97.7449 93.6377 98.0111 93.6377 98.2111V109.811C93.5714 110.345 93.9039 110.811 94.3714 111.077C96.5333 112.087 98.8201 112.805 101.171 113.211C104.171 113.811 107.17 114.077 110.236 114.077C115.036 114.077 119.038 113.345 122.304 111.945C125.304 110.745 127.904 108.679 129.77 106.011C131.518 103.389 132.425 100.296 132.37 97.1449C132.436 94.7645 131.909 92.4051 130.838 90.2786C129.57 88.0111 127.77 86.1449 125.57 84.7449C122.352 82.7237 118.906 81.0899 115.304 79.8774C113.695 79.2117 112.116 78.4777 110.57 77.6774C109.704 77.2111 108.904 76.6111 108.304 75.8774C107.904 75.3436 107.638 74.7449 107.638 74.1449C107.638 73.5449 107.838 72.8786 108.17 72.3449C108.638 71.6786 109.37 71.2111 110.236 71.0111C111.504 70.6786 112.904 70.4774 114.236 70.5436C116.77 70.5436 119.236 70.8774 121.704 71.4111C123.971 71.8774 126.104 72.6111 128.104 73.6786C128.37 73.8111 128.704 73.8111 129.304 73.6786C129.408 73.6014 129.493 73.5008 129.551 73.3848C129.609 73.2688 129.638 73.1408 129.638 73.0111V62.1449C129.638 61.8774 129.57 61.6111 129.504 61.3449C129.37 61.0786 129.104 60.8111 128.838 60.7449C126.999 59.9934 125.072 59.478 123.104 59.2111C120.367 58.8126 117.604 58.6133 114.838 58.6124Z" fill="#0471C0"/>
</svg>
