<svg width="169" height="45" viewBox="0 0 169 45" fill="none" xmlns="http://www.w3.org/2000/svg">
<rect y="0.785645" width="169" height="44" rx="22" fill="white"/>
<path d="M38.1543 13.2416V16.4056H30.0063V21.4176H36.2503V24.5256H30.0063V32.7856H26.0863V13.2416H38.1543ZM42.854 19.6816C43.358 18.8603 44.0113 18.2163 44.814 17.7496C45.6353 17.283 46.5686 17.0496 47.614 17.0496V21.1656H46.578C45.346 21.1656 44.4126 21.455 43.778 22.0336C43.162 22.6123 42.854 23.6203 42.854 25.0576V32.7856H38.934V17.2736H42.854V19.6816ZM62.6743 24.6936C62.6743 25.2536 62.6369 25.7576 62.5623 26.2056H51.2223C51.3156 27.3256 51.7076 28.203 52.3983 28.8376C53.0889 29.4723 53.9383 29.7896 54.9463 29.7896C56.4023 29.7896 57.4383 29.1643 58.0543 27.9136H62.2823C61.8343 29.407 60.9756 30.639 59.7063 31.6096C58.4369 32.5616 56.8783 33.0376 55.0303 33.0376C53.5369 33.0376 52.1929 32.711 50.9983 32.0576C49.8223 31.3856 48.8983 30.443 48.2263 29.2296C47.5729 28.0163 47.2463 26.6163 47.2463 25.0296C47.2463 23.4243 47.5729 22.015 48.2263 20.8016C48.8796 19.5883 49.7943 18.655 50.9703 18.0016C52.1463 17.3483 53.4996 17.0216 55.0303 17.0216C56.5049 17.0216 57.8209 17.339 58.9783 17.9736C60.1543 18.6083 61.0596 19.5136 61.6943 20.6896C62.3476 21.847 62.6743 23.1816 62.6743 24.6936ZM58.6143 23.5736C58.5956 22.5656 58.2316 21.763 57.5223 21.1656C56.8129 20.5496 55.9449 20.2416 54.9183 20.2416C53.9476 20.2416 53.1263 20.5403 52.4543 21.1376C51.8009 21.7163 51.3996 22.5283 51.2503 23.5736H58.6143ZM69.4715 33.0376C68.2022 33.0376 67.0635 32.8136 66.0555 32.3656C65.0475 31.899 64.2448 31.2736 63.6475 30.4896C63.0688 29.7056 62.7515 28.8376 62.6955 27.8856H66.6435C66.7182 28.483 67.0075 28.9776 67.5115 29.3696C68.0342 29.7616 68.6782 29.9576 69.4435 29.9576C70.1902 29.9576 70.7688 29.8083 71.1795 29.5096C71.6088 29.211 71.8235 28.8283 71.8235 28.3616C71.8235 27.8576 71.5622 27.4843 71.0395 27.2416C70.5355 26.9803 69.7235 26.7003 68.6035 26.4016C67.4462 26.1216 66.4942 25.8323 65.7475 25.5336C65.0195 25.235 64.3848 24.7776 63.8435 24.1616C63.3208 23.5456 63.0595 22.715 63.0595 21.6696C63.0595 20.811 63.3022 20.027 63.7875 19.3176C64.2915 18.6083 65.0008 18.0483 65.9155 17.6376C66.8488 17.227 67.9408 17.0216 69.1915 17.0216C71.0395 17.0216 72.5142 17.4883 73.6155 18.4216C74.7168 19.3363 75.3235 20.5776 75.4355 22.1456H71.6835C71.6275 21.5296 71.3662 21.0443 70.8995 20.6896C70.4515 20.3163 69.8448 20.1296 69.0795 20.1296C68.3702 20.1296 67.8195 20.2603 67.4275 20.5216C67.0542 20.783 66.8675 21.147 66.8675 21.6136C66.8675 22.1363 67.1288 22.5376 67.6515 22.8176C68.1742 23.079 68.9862 23.3496 70.0875 23.6296C71.2075 23.9096 72.1315 24.199 72.8595 24.4976C73.5875 24.7963 74.2128 25.263 74.7355 25.8976C75.2768 26.5136 75.5568 27.335 75.5755 28.3616C75.5755 29.2576 75.3235 30.0603 74.8195 30.7696C74.3342 31.479 73.6248 32.039 72.6915 32.4496C71.7768 32.8416 70.7035 33.0376 69.4715 33.0376ZM85.5293 17.0496C86.7053 17.0496 87.7507 17.311 88.6653 17.8336C89.58 18.3376 90.2893 19.0936 90.7933 20.1016C91.316 21.091 91.5773 22.2856 91.5773 23.6856V32.7856H87.6573V24.2176C87.6573 22.9856 87.3493 22.043 86.7333 21.3896C86.1173 20.7176 85.2773 20.3816 84.2133 20.3816C83.1307 20.3816 82.272 20.7176 81.6373 21.3896C81.0213 22.043 80.7133 22.9856 80.7133 24.2176V32.7856H76.7933V12.0656H80.7133V19.2056C81.2173 18.5336 81.8893 18.011 82.7293 17.6376C83.5693 17.2456 84.5027 17.0496 85.5293 17.0496ZM105.373 13.2416V16.4056H97.225V21.4176H103.469V24.5256H97.225V32.7856H93.305V13.2416H105.373ZM113.041 33.0376C111.547 33.0376 110.203 32.711 109.009 32.0576C107.814 31.3856 106.871 30.443 106.181 29.2296C105.509 28.0163 105.173 26.6163 105.173 25.0296C105.173 23.443 105.518 22.043 106.209 20.8296C106.918 19.6163 107.879 18.683 109.093 18.0296C110.306 17.3576 111.659 17.0216 113.153 17.0216C114.646 17.0216 115.999 17.3576 117.213 18.0296C118.426 18.683 119.378 19.6163 120.069 20.8296C120.778 22.043 121.133 23.443 121.133 25.0296C121.133 26.6163 120.769 28.0163 120.041 29.2296C119.331 30.443 118.361 31.3856 117.129 32.0576C115.915 32.711 114.553 33.0376 113.041 33.0376ZM113.041 29.6216C113.75 29.6216 114.413 29.4536 115.029 29.1176C115.663 28.763 116.167 28.2403 116.541 27.5496C116.914 26.859 117.101 26.019 117.101 25.0296C117.101 23.555 116.709 22.4256 115.925 21.6416C115.159 20.839 114.217 20.4376 113.097 20.4376C111.977 20.4376 111.034 20.839 110.269 21.6416C109.522 22.4256 109.149 23.555 109.149 25.0296C109.149 26.5043 109.513 27.643 110.241 28.4456C110.987 29.2296 111.921 29.6216 113.041 29.6216ZM125.928 12.0656V32.7856H122.008V12.0656H125.928ZM126.793 24.9736C126.793 23.4056 127.101 22.015 127.717 20.8016C128.352 19.5883 129.21 18.655 130.293 18.0016C131.376 17.3483 132.58 17.0216 133.905 17.0216C134.913 17.0216 135.874 17.2456 136.789 17.6936C137.704 18.123 138.432 18.7016 138.973 19.4296V12.0656H142.949V32.7856H138.973V30.4896C138.488 31.255 137.806 31.871 136.929 32.3376C136.052 32.8043 135.034 33.0376 133.877 33.0376C132.57 33.0376 131.376 32.7016 130.293 32.0296C129.21 31.3576 128.352 30.415 127.717 29.2016C127.101 27.9696 126.793 26.5603 126.793 24.9736ZM139.001 25.0296C139.001 24.0776 138.814 23.2656 138.441 22.5936C138.068 21.903 137.564 21.3803 136.929 21.0256C136.294 20.6523 135.613 20.4656 134.885 20.4656C134.157 20.4656 133.485 20.643 132.869 20.9976C132.253 21.3523 131.749 21.875 131.357 22.5656C130.984 23.2376 130.797 24.0403 130.797 24.9736C130.797 25.907 130.984 26.7283 131.357 27.4376C131.749 28.1283 132.253 28.6603 132.869 29.0336C133.504 29.407 134.176 29.5936 134.885 29.5936C135.613 29.5936 136.294 29.4163 136.929 29.0616C137.564 28.6883 138.068 28.1656 138.441 27.4936C138.814 26.803 139.001 25.9816 139.001 25.0296Z" fill="#17252A"/>
</svg>
