<svg width="25" height="25" viewBox="0 0 25 25" fill="none" xmlns="http://www.w3.org/2000/svg">
<path d="M22.5493 14.3345V21.7135H18.2713V14.8285C18.2713 13.0985 17.6523 11.9185 16.1043 11.9185C14.9223 11.9185 14.2183 12.7145 13.9093 13.4835C13.7963 13.7585 13.7673 14.1415 13.7673 14.5265V21.7135H9.48733C9.48733 21.7135 9.54533 10.0535 9.48733 8.84448H13.7673V10.6685L13.7393 10.7105H13.7673V10.6685C14.3353 9.79348 15.3503 8.54248 17.6233 8.54248C20.4383 8.54248 22.5493 10.3825 22.5493 14.3345ZM5.01133 2.64148C3.54833 2.64148 2.59033 3.60148 2.59033 4.86448C2.59033 6.09948 3.52033 7.08848 4.95533 7.08848H4.98333C6.47633 7.08848 7.40333 6.09948 7.40333 4.86448C7.37733 3.60148 6.47633 2.64148 5.01133 2.64148ZM2.84433 21.7135H7.12233V8.84448H2.84433V21.7135Z" fill="#1A1A1A"/>
</svg>
