<svg width="24" height="25" viewBox="0 0 24 25" fill="none" xmlns="http://www.w3.org/2000/svg">
<path d="M2.66666 10.4026V15.6572C2.66666 16.5855 3.03541 17.4757 3.69178 18.1321C4.34816 18.7885 5.2384 19.1572 6.16666 19.1572H17.8333C18.7616 19.1572 19.6518 18.7885 20.3082 18.1321C20.9646 17.4757 21.3333 16.5855 21.3333 15.6572V10.4026L12.4783 14.3879C12.3279 14.4555 12.1649 14.4905 12 14.4905C11.8351 14.4905 11.6721 14.4555 11.5217 14.3879L2.66666 10.4026ZM2.75299 7.88256L12 12.0452L21.247 7.88256C21.0713 7.10854 20.6378 6.4172 20.0175 5.922C19.3972 5.42679 18.627 5.15712 17.8333 5.15723H6.16666C5.37295 5.15712 4.60277 5.42679 3.98249 5.922C3.36221 6.4172 2.92866 7.10854 2.75299 7.88256Z" fill="#1A1A1A"/>
</svg>
