<svg width="135" height="26" viewBox="0 0 135 26" fill="none" xmlns="http://www.w3.org/2000/svg">
<path d="M0.744751 13.7538C0.708728 14.0276 0.901471 14.2788 1.17525 14.3148C1.44904 14.3508 1.70018 14.1581 1.73621 13.8843L0.744751 13.7538ZM134.113 4.27196C134.308 4.0767 134.308 3.76012 134.113 3.56486L130.931 0.382876C130.736 0.187614 130.419 0.187614 130.224 0.382876C130.029 0.578139 130.029 0.894721 130.224 1.08998L133.052 3.91841L130.224 6.74684C130.029 6.9421 130.029 7.25868 130.224 7.45394C130.419 7.64921 130.736 7.64921 130.931 7.45394L134.113 4.27196ZM1.73621 13.8843C2.04706 11.5217 2.78911 8.93612 4.06884 6.74556C5.34717 4.55741 7.14492 2.78974 9.5648 1.99407C14.4005 0.404082 22.0709 2.60758 33.6359 14.1726L34.343 13.4655C22.7552 1.87765 14.6857 -0.742364 9.25245 1.04411C6.53786 1.93667 4.56886 3.90723 3.20539 6.24113C1.84333 8.57262 1.06854 11.2929 0.744751 13.7538L1.73621 13.8843ZM33.6359 14.1726C40.9492 21.4859 48.297 24.5446 55.8688 24.9808C63.4155 25.4155 71.137 23.2413 79.1964 20.1893C95.3711 14.0639 112.936 4.41841 133.76 4.41841V3.41841C112.695 3.41841 94.8453 13.1938 78.8423 19.2541C70.8129 22.2948 63.2547 24.4046 55.9263 23.9824C48.623 23.5618 41.5003 20.6228 34.343 13.4655L33.6359 14.1726Z" fill="black"/>
</svg>
