<svg width="25" height="25" viewBox="0 0 25 25" fill="none" xmlns="http://www.w3.org/2000/svg">
<path d="M8.27634 5.52747C8.91534 5.52747 9.50634 5.57747 10.0463 5.72547C10.5873 5.82447 11.0303 6.02247 11.4233 6.26947C11.8173 6.5168 12.1123 6.86313 12.3083 7.30847C12.5053 7.75347 12.6043 8.29847 12.6043 8.89147C12.6043 9.58447 12.4563 10.1775 12.1123 10.6225C11.8173 11.0685 11.3253 11.4635 10.7353 11.7605C11.5713 12.0085 12.2103 12.4535 12.6043 13.0465C12.9983 13.6395 13.2433 14.3825 13.2433 15.2235C13.2433 15.9165 13.0953 16.5095 12.8493 17.0045C12.6043 17.4995 12.2103 17.9445 11.7673 18.2415C11.2859 18.5594 10.754 18.7934 10.1943 18.9335C9.60434 19.0825 9.01434 19.1815 8.42434 19.1815H1.83334V5.52747H8.27634ZM7.88234 11.0675C8.42334 11.0675 8.86634 10.9195 9.21034 10.6725C9.55434 10.4255 9.70234 9.97947 9.70234 9.43547C9.70234 9.13847 9.65234 8.84147 9.55434 8.64447C9.45634 8.44747 9.30834 8.29747 9.11234 8.14947C8.91194 8.03691 8.6964 7.95373 8.47234 7.90247C8.22634 7.85247 7.98134 7.85247 7.68534 7.85247H4.83334V11.0685L7.88234 11.0675ZM8.03034 16.9055C8.32534 16.9055 8.62034 16.8555 8.86634 16.8065C9.11234 16.7565 9.35834 16.6585 9.55434 16.5095C9.75394 16.3638 9.92142 16.1786 10.0463 15.9655C10.1443 15.7185 10.2433 15.4215 10.2433 15.0755C10.2433 14.3825 10.0463 13.8875 9.65334 13.5415C9.25934 13.2445 8.71834 13.0965 8.07934 13.0965H4.83334V16.9065L8.03034 16.9055ZM17.5223 16.8555C17.9157 17.2515 18.5057 17.4495 19.2923 17.4495C19.8333 17.4495 20.3253 17.3015 20.7183 17.0545C21.1123 16.7571 21.3583 16.4601 21.4563 16.1635H23.8663C23.4723 17.3505 22.8823 18.1915 22.0963 18.7355C21.3083 19.2305 20.3743 19.5275 19.2433 19.5275C18.5198 19.5285 17.8025 19.3942 17.1283 19.1315C16.5215 18.9051 15.9805 18.5312 15.5543 18.0435C15.0967 17.5888 14.7589 17.0277 14.5713 16.4105C14.3253 15.7675 14.2263 15.0755 14.2263 14.2835C14.2263 13.5415 14.3253 12.8495 14.5713 12.2055C14.8073 11.5851 15.1577 11.0145 15.6043 10.5235C16.0463 10.0785 16.5873 9.68347 17.1773 9.43547C17.8341 9.17177 18.5356 9.03731 19.2433 9.03947C20.0793 9.03947 20.8173 9.18847 21.4563 9.53447C22.0963 9.88047 22.5873 10.2765 22.9803 10.8705C23.3743 11.4145 23.6703 12.0575 23.8663 12.7505C23.9643 13.4425 24.0133 14.1355 23.9643 14.9265H16.8333C16.8333 15.7185 17.1283 16.4605 17.5223 16.8565M20.6203 11.6625C20.2763 11.3165 19.7353 11.1185 19.0953 11.1185C18.7201 11.1128 18.349 11.1976 18.0133 11.3655C17.7183 11.5145 17.5223 11.7125 17.3253 11.9105C17.1432 12.1009 17.0232 12.3423 16.9813 12.6025C16.9313 12.8505 16.8823 13.0475 16.8823 13.2455H21.3083C21.2103 12.5035 20.9643 12.0095 20.6203 11.6625ZM16.2923 6.46747H21.8003V7.80347H16.2933L16.2923 6.46747Z" fill="#1A1A1A"/>
</svg>
