<svg width="161" height="161" viewBox="0 0 161 161" fill="none" xmlns="http://www.w3.org/2000/svg">
<path d="M65.8272 97.9861H41.0272L35.9603 113.719C35.8272 114.319 35.294 114.719 34.694 114.653H22.1603C21.4272 114.653 21.2272 114.253 21.4272 113.453L42.894 51.9193C43.094 51.253 43.294 50.653 43.5603 49.853C43.8272 48.453 43.9603 46.9861 43.9603 45.5193C43.894 45.1861 44.1603 44.853 44.4934 44.7861H61.7603C62.2272 44.7861 62.5603 44.9861 62.6272 45.3193L86.9603 113.319C87.1603 114.053 86.9603 114.386 86.294 114.386H72.3603C71.894 114.453 71.4272 114.119 71.294 113.653L65.8272 97.653V97.9861ZM44.894 84.7193H61.8272C61.4272 83.3193 60.8934 81.653 60.2934 79.9193C59.6934 78.1193 59.0934 76.1861 58.4934 74.1861C57.8272 72.1193 57.2272 70.1193 56.5603 68.053C55.8934 65.9868 55.294 64.053 54.7603 62.1193C54.2272 60.253 53.7603 58.5193 53.2934 56.9193H53.1603C52.5603 59.7861 51.8272 62.653 50.8934 65.5193C49.8934 68.7193 48.8934 72.053 47.8272 75.3861C46.9603 78.7861 45.8934 81.9193 44.894 84.7193ZM126.227 91.9861H105.094C105.36 94.053 106.027 96.1193 107.16 97.9193C108.36 99.7193 110.027 101.119 112.027 101.919C114.694 103.053 117.627 103.653 120.56 103.586C122.894 103.519 125.227 103.319 127.494 102.853C129.527 102.587 131.52 102.072 133.427 101.319C133.76 101.053 133.96 101.186 133.96 101.853V112.053C133.96 112.319 133.894 112.586 133.827 112.853C133.694 113.053 133.56 113.186 133.36 113.319C131.228 114.256 128.989 114.927 126.694 115.319C123.575 115.919 120.402 116.187 117.227 116.119C112.16 116.119 107.894 115.319 104.427 113.786C101.16 112.386 98.294 110.186 96.0272 107.453C93.9164 104.884 92.3513 101.913 91.4272 98.7193C90.494 95.5861 90.0272 92.3193 90.0272 88.9861C90.0272 85.3861 90.5603 81.853 91.694 78.3861C92.7567 75.0481 94.4545 71.9468 96.694 69.253C98.894 66.5861 101.627 64.453 104.76 62.9193C107.894 61.3861 111.627 60.853 115.894 60.853C119.427 60.7861 122.96 61.453 126.227 62.9193C128.96 64.1193 131.36 65.9193 133.227 68.253C134.96 70.5193 136.36 73.053 137.227 75.853C138.094 78.5193 138.494 81.253 138.494 83.9861C138.494 85.5861 138.427 86.9861 138.36 88.253C138.227 89.5193 138.16 90.453 138.094 91.053C138.027 91.5193 137.627 91.9193 137.16 91.9193C136.76 91.9193 136.027 91.9861 134.96 92.053C133.894 92.1861 132.627 92.253 131.094 92.253C129.56 92.253 127.96 91.9861 126.227 91.9861ZM105.094 82.253H119.16C120.894 82.253 122.16 82.253 122.96 82.1861C123.494 82.1193 124.027 81.9861 124.494 81.653V80.9861C124.496 80.1475 124.361 79.3142 124.094 78.5193C122.894 74.7861 119.36 72.253 115.427 72.3861C113.618 72.2848 111.818 72.7092 110.244 73.6083C108.671 74.5074 107.392 75.8427 106.56 77.453C105.76 78.9861 105.294 80.5861 105.094 82.253Z" fill="#1E1EFF"/>
</svg>
