<svg width="161" height="161" viewBox="0 0 161 161" fill="none" xmlns="http://www.w3.org/2000/svg">
<g clip-path="url(#clip0_24_62)">
<path d="M65.6573 89.981C66.4473 90.471 78.384 92.8977 81.3007 93.381C82.3107 93.5943 81.594 94.6343 80.2007 95.3377C77.0573 96.1743 61.8107 89.981 65.6573 89.981ZM84.4807 45.7677L96.164 57.6343C97.274 58.7677 97.2573 60.961 96.6373 61.591L90.8373 56.951L89.6973 63.821L84.8473 61.2643L77.0873 66.1643L74.5173 55.831L70.3473 63.0443H63.9707C61.3707 63.0443 61.0673 59.7443 63.4273 57.3843C67.5507 52.9343 72.284 48.3977 74.8573 45.7677C77.444 43.1243 81.9473 43.201 84.4807 45.7677ZM72.724 43.6443L43.1907 73.8643C33.214 86.221 49.984 84.7843 57.1707 88.341C59.7507 90.9777 47.2873 92.9243 49.8673 95.561C52.444 98.1977 65.4607 100.641 68.044 103.274C70.6207 105.911 62.764 108.708 65.344 111.341C67.9207 113.981 73.8873 111.481 75.004 117.568C75.7973 121.914 85.7507 119.434 90.6173 115.874C93.1973 113.238 85.684 113.484 88.264 110.848C94.674 104.291 100.647 108.468 102.841 101.894C103.924 98.6477 93.4007 96.891 95.984 94.2543C103.404 89.921 129.047 87.101 116.877 74.9343L86.2707 43.6443C82.5273 40.051 76.274 40.011 72.724 43.6443ZM106.647 101.894C106.647 103.394 117.694 104.378 117.694 101.541C116.121 96.9877 107.954 97.2943 106.647 101.894ZM56.8873 109.861C59.5007 112.124 63.544 109.298 64.754 106.141C62.2207 102.774 52.7307 106.264 56.8873 109.861ZM105.261 104.974C101.891 108.001 105.641 111.068 108.964 109.114C109.704 108.364 108.941 105.728 105.261 104.974Z" fill="#1A1A1A"/>
</g>
<defs>
<clipPath id="clip0_24_62">
<rect width="80" height="80" fill="white" transform="translate(40.104 40.4111)"/>
</clipPath>
</defs>
</svg>
