<svg width="161" height="161" viewBox="0 0 161 161" fill="none" xmlns="http://www.w3.org/2000/svg">
<path d="M77.4371 95.6193H52.6371L47.5702 111.286C47.4371 111.886 46.904 112.286 46.304 112.219H33.7702C33.0371 112.219 32.8371 111.819 33.0371 111.019L54.504 49.2194C54.704 48.5531 54.904 47.8194 55.1702 47.0194C55.4371 45.6194 55.5702 44.1531 55.5702 42.6862C55.504 42.3531 55.7702 42.0194 56.104 41.9531H73.3702C73.904 41.9531 74.1702 42.1531 74.2371 42.4862L98.5702 111.153C98.7702 111.886 98.5702 112.219 97.904 112.219H83.9702C83.504 112.286 83.0371 111.953 82.904 111.486L77.4371 95.6193ZM56.504 82.0862H73.4371C73.0371 80.6862 72.504 79.0194 71.904 77.2862C71.304 75.4862 70.704 73.5531 70.104 71.5531C69.4371 69.4862 68.8371 67.4862 68.1702 65.4194C67.504 63.3531 66.904 61.4193 66.3702 59.4862C65.8371 57.62 65.3702 55.8862 64.904 54.2862H64.7702C64.1702 57.1531 63.4371 60.02 62.504 62.8862C61.504 66.0862 60.504 69.4194 59.4371 72.7531C58.5763 75.8997 57.5979 79.0129 56.504 82.0862ZM113.437 53.6194C111.237 53.6862 109.104 52.8194 107.504 51.2862C105.971 49.6194 105.171 47.4194 105.237 45.1531C105.171 42.8862 106.037 40.7531 107.637 39.2194C109.237 37.6856 111.371 36.8862 113.571 36.8862C116.171 36.8862 118.171 37.6862 119.637 39.2194C121.115 40.8355 121.904 42.9642 121.837 45.1531C121.904 47.4194 121.104 49.6194 119.504 51.2862C117.971 52.8862 115.704 53.7531 113.437 53.6194ZM105.971 111.486V60.1531C105.971 59.4862 106.237 59.2194 106.837 59.2194H120.037C120.637 59.2194 120.904 59.5531 120.904 60.1531V111.486C120.904 112.219 120.637 112.553 120.037 112.553H106.971C106.304 112.553 105.971 112.153 105.971 111.486Z" fill="#D07E00"/>
</svg>
