<svg width="161" height="161" viewBox="0 0 161 161" fill="none" xmlns="http://www.w3.org/2000/svg">
<mask id="mask0_24_31" style="mask-type:luminance" maskUnits="userSpaceOnUse" x="38" y="17" width="72" height="108">
<path d="M38.2289 17.9111H109.354V124.578H38.2289V17.9111Z" fill="white"/>
</mask>
<g mask="url(#mask0_24_31)">
<path d="M56.0141 124.578C65.8274 124.578 73.7917 116.614 73.7917 106.8V89.0222H56.0141C46.2007 89.0222 38.2359 96.987 38.2359 106.8C38.2359 116.614 46.2007 124.578 56.0141 124.578Z" fill="#0ACF83"/>
<path d="M38.2359 71.2444C38.2359 61.4311 46.2007 53.4668 56.0141 53.4668H73.7917V89.022H56.0141C46.2007 89.022 38.2359 81.0577 38.2359 71.2444Z" fill="#A259FF"/>
<path d="M38.2359 35.6887C38.2359 25.8754 46.2007 17.9111 56.014 17.9111H73.7916V53.4669H56.014C46.2007 53.4669 38.2359 45.5021 38.2359 35.6887Z" fill="#F24E1E"/>
<path d="M73.7917 17.9111H91.5693C101.383 17.9111 109.347 25.8754 109.347 35.6887C109.347 45.5021 101.383 53.4669 91.5693 53.4669H73.7917V17.9111Z" fill="#FF7262"/>
<path d="M109.347 71.2444C109.347 81.0577 101.383 89.022 91.5693 89.022C81.756 89.022 73.7917 81.0577 73.7917 71.2444C73.7917 61.4311 81.756 53.4668 91.5693 53.4668C101.383 53.4668 109.347 61.4311 109.347 71.2444Z" fill="#1ABCFE"/>
</g>
</svg>
