<svg width="161" height="161" viewBox="0 0 161 161" fill="none" xmlns="http://www.w3.org/2000/svg">
<path d="M67.5389 85.699C67.9678 78.0171 71.7114 71.249 77.3593 66.4511C82.8983 61.739 90.3538 58.8589 98.4884 58.8589C106.615 58.8589 114.07 61.739 119.613 66.4511C125.257 71.249 129.001 78.0171 129.433 85.6907C129.862 93.584 126.704 100.917 121.165 106.352C115.518 111.881 107.484 115.351 98.4884 115.351C89.4926 115.351 81.4432 111.881 75.7991 106.352C70.2558 100.917 67.1067 93.584 67.5389 85.699Z" fill="white"/>
<path d="M82.6093 86.3888C82.8291 82.4471 84.7501 78.9742 87.648 76.5124C90.4899 74.0944 94.3154 72.6167 98.4895 72.6167C102.659 72.6167 106.485 74.0944 109.328 76.5124C112.224 78.9742 114.146 82.4471 114.367 86.3843C114.587 90.4345 112.967 94.1968 110.125 96.9862C107.227 99.8232 103.105 101.603 98.4895 101.603C93.8737 101.603 89.7433 99.8232 86.8471 96.9862C84.0035 94.1968 82.3874 90.4345 82.6093 86.3888Z" fill="#265787"/>
<path d="M57.3211 94.3534C57.3482 95.8959 57.8375 98.8933 58.5719 101.234C60.116 106.189 62.7339 110.773 66.3761 114.812C70.1147 118.965 74.7177 122.3 80.0347 124.668C85.6235 127.154 91.6788 128.422 97.9687 128.411C104.248 128.403 110.303 127.11 115.892 124.605C121.209 122.214 125.808 118.865 129.54 114.71C133.181 110.654 135.795 106.062 137.342 101.107C138.114 98.6387 138.606 96.0915 138.809 93.5132C139.002 90.9981 138.921 88.4695 138.567 85.9719C137.874 81.0733 136.187 76.4769 133.589 72.2873C131.214 68.4375 128.152 65.067 124.512 62.23L124.52 62.2234L87.7786 33.8773C87.7454 33.8518 87.7188 33.8247 87.6834 33.802C85.2726 31.9424 81.2191 31.9491 78.5681 33.8125C75.8877 35.697 75.5811 38.813 77.9665 40.7788L77.956 40.7893L93.2804 53.3106L46.5731 53.3604H46.5111C42.6502 53.3648 38.9394 55.9096 38.2049 59.1263C37.45 62.4027 40.0717 65.1207 44.0859 65.1356L44.0798 65.15L67.7537 65.1041L25.5088 97.6863C25.4551 97.7261 25.397 97.7676 25.3472 97.8075C21.3623 100.874 20.0739 105.972 22.5838 109.199C25.1313 112.48 30.5479 112.486 34.5743 109.217L57.6305 90.2573C57.6305 90.2573 57.294 92.817 57.3211 94.3534ZM116.566 102.925C111.816 107.788 105.165 110.546 97.9687 110.56C90.7617 110.573 84.1109 107.84 79.3606 102.985C77.0394 100.619 75.3337 97.8971 74.2822 94.9976C73.247 92.1429 72.8492 89.0963 73.1166 86.0715C73.3673 83.089 74.2512 80.2437 75.6619 77.6696C77.0477 75.1387 78.956 72.8524 81.3126 70.9181C85.9306 67.1369 91.8094 65.0897 97.9582 65.0814C104.113 65.0731 109.988 67.1009 114.61 70.8699C116.963 72.7959 118.869 75.0745 120.255 77.6004C121.685 80.1904 122.556 83.0516 122.81 85.9991C123.074 89.0219 122.674 92.0658 121.64 94.9185C120.587 97.8263 118.887 100.548 116.566 102.925Z" fill="#EA7600"/>
</svg>
